<svg width="14" height="14" viewBox="0 0 14 14" fill="none" xmlns="http://www.w3.org/2000/svg">
<path d="M7.351 9.83714C7.356 9.83114 7.358 9.82314 7.363 9.81714L10.8538 5.96003C11.0487 5.74302 11.0487 5.39101 10.8538 5.174C10.8518 5.172 10.8478 5.17 10.8478 5.17C10.8044 5.11746 10.75 5.07502 10.6886 5.04566C10.6271 5.01629 10.5599 5.00071 10.4918 5H3.50927C3.43988 5.00112 3.37159 5.01747 3.30922 5.04788C3.24684 5.07829 3.19191 5.12203 3.14829 5.17601L3.14629 5.174C3.05193 5.28319 3 5.4227 3 5.56702C3 5.71134 3.05193 5.85084 3.14629 5.96003L6.64505 9.83714C6.68861 9.8882 6.74272 9.9292 6.80366 9.95732C6.8646 9.98544 6.93091 10 6.99803 10C7.06514 10 7.13145 9.98544 7.19239 9.95732C7.25333 9.9292 7.30744 9.8882 7.351 9.83714Z" fill="#979DAA"/>
</svg>
